# xmcd CD database file
#
# Track frame offsets:
#	150
#	16300
#	35580
#	57440
#	81630
#	99215
#	113170
#	124713
#	143962
#	173525
#	193655
#	209532
#	231243
#	247250
#
# Disc length: 3508 seconds
#
# Revision: 2
# Processed by: cddbd v1.5.2PL0 Copyright (c) Steve Scherf et al.
# Submitted via: CDex 1.51
#
DISCID=c80db20e
DTITLE=G Love and Special Sauce - G Love and Special Sauce
DYEAR=1994
DGENRE=Rock
TTITLE0=The Things That I Used To Do
TTITLE1=Blues Music
TTITLE2=Garbage Man
TTITLE3=Eyes Have Miles
TTITLE4=Baby's Got Sauce
TTITLE5=Rhyme For The Summertime
TTITLE6=Cold Beverage
TTITLE7=Fatman
TTITLE8=This Ain't Living
TTITLE9=Walk To Slide
TTITLE10=Shooting Hoops
TTITLE11=Some Peoples Like That
TTITLE12=Town To Town
TTITLE13=I Love You
EXTD=YEAR: 1994
EXTT0=
EXTT1=
EXTT2=
EXTT3=
EXTT4=
EXTT5=
EXTT6=
EXTT7=
EXTT8=
EXTT9=
EXTT10=
EXTT11=
EXTT12=
EXTT13=
PLAYORDER=
